<?xml version="1.0" encoding="UTF-8" standalone="no"?>
<!DOCTYPE svg PUBLIC "-//W3C//DTD SVG 1.1//EN" "http://www.w3.org/Graphics/SVG/1.1/DTD/svg11.dtd">
<svg xmlns="http://www.w3.org/2000/svg" version="1.1" xmlns:xl="http://www.w3.org/1999/xlink" xmlns:dc="http://purl.org/dc/elements/1.1/" viewBox="520 0 120 120" width="120" height="120">
  <defs/>
  <metadata> Produced by OmniGraffle 7.17.2\n2020-08-14 20:50:54 +0000</metadata>
  <g id="Canvas_1" stroke="none" stroke-opacity="1" stroke-dasharray="none" fill-opacity="1" fill="none">
    <title>Canvas 1</title>
    <g id="Canvas_1_Layer_1">
      <title>Layer 1</title>
      <g id="Graphic_407">
        <rect x="520" y="0" width="120" height="120" fill="white"/>
      </g>
      <g id="Graphic_406">
        <path d="M 570 97.5 C 570 97.5 570 92.5 570 85 C 570 77.5 555 70 555 57.5 C 555 45 562.5 30 580 30 C 597.5 30 605 45 605 57.5 C 605 70 590 77.5 590 85 C 590 92.5 590 97.5 590 97.5 Z" stroke="#841617" stroke-linecap="round" stroke-linejoin="round" stroke-width="3"/>
      </g>
      <g id="Line_405">
        <line x1="572.5" y1="102.5" x2="587.5" y2="102.5" stroke="#841617" stroke-linecap="round" stroke-linejoin="round" stroke-width="4"/>
      </g>
      <g id="Line_404">
        <line x1="572.5" y1="107.5" x2="587.5" y2="107.5" stroke="#841617" stroke-linecap="round" stroke-linejoin="round" stroke-width="4"/>
      </g>
      <g id="Line_403">
        <line x1="575" y1="112.5" x2="585" y2="112.5" stroke="#841617" stroke-linecap="round" stroke-linejoin="round" stroke-width="4"/>
      </g>
      <g id="Line_402">
        <line x1="580" y1="7.5" x2="580" y2="25" stroke="#841617" stroke-linecap="round" stroke-linejoin="round" stroke-width="3"/>
      </g>
      <g id="Line_401">
        <line x1="630" y1="57.5" x2="612.5" y2="57.5" stroke="#841617" stroke-linecap="round" stroke-linejoin="round" stroke-width="3"/>
      </g>
      <g id="Line_400">
        <line x1="547.5" y1="57.5" x2="530" y2="57.5" stroke="#841617" stroke-linecap="round" stroke-linejoin="round" stroke-width="3"/>
      </g>
      <g id="Line_399">
        <line x1="619.8744" y1="22.62563" x2="607.5" y2="35" stroke="#841617" stroke-linecap="round" stroke-linejoin="round" stroke-width="3"/>
      </g>
      <g id="Line_398">
        <line x1="540.1256" y1="22.62563" x2="552.5" y2="35" stroke="#841617" stroke-linecap="round" stroke-linejoin="round" stroke-width="3"/>
      </g>
      <g id="Line_397">
        <line x1="540.1256" y1="90" x2="552.5" y2="77.62563" stroke="#841617" stroke-linecap="round" stroke-linejoin="round" stroke-width="3"/>
      </g>
      <g id="Line_396">
        <line x1="617.5" y1="90" x2="605.1256" y2="77.62563" stroke="#841617" stroke-linecap="round" stroke-linejoin="round" stroke-width="3"/>
      </g>
      <g id="Line_395">
        <path d="M 580 35 C 592.5 37.5 595 45 595 45" stroke="#841617" stroke-linecap="round" stroke-linejoin="round" stroke-width="3"/>
      </g>
      <g id="Line_394">
        <path d="M 597.5 50 C 600 52.5 597.5 60 597.5 60" stroke="#841617" stroke-linecap="round" stroke-linejoin="round" stroke-width="3"/>
      </g>
    </g>
  </g>
</svg>
