<?xml version="1.0" encoding="UTF-8" standalone="no"?>
<!DOCTYPE svg PUBLIC "-//W3C//DTD SVG 1.1//EN" "http://www.w3.org/Graphics/SVG/1.1/DTD/svg11.dtd">
<svg xmlns="http://www.w3.org/2000/svg" version="1.1" xmlns:xl="http://www.w3.org/1999/xlink" xmlns:dc="http://purl.org/dc/elements/1.1/" viewBox="520 130 120 120" width="120" height="120">
  <defs/>
  <metadata> Produced by OmniGraffle 7.17.2\n2020-08-14 22:09:12 +0000</metadata>
  <g id="Canvas_1" stroke="none" stroke-opacity="1" stroke-dasharray="none" fill-opacity="1" fill="none">
    <title>Canvas 1</title>
    <g id="Canvas_1_Layer_1">
      <title>Layer 1</title>
      <g id="Graphic_474">
        <rect x="520" y="130" width="120" height="120" fill="white"/>
      </g>
      <g id="Line_471">
        <path d="M 535 162.5 C 535 162.5 535 217.5 535 217.5" stroke="#841617" stroke-linecap="round" stroke-linejoin="round" stroke-width="2"/>
      </g>
      <g id="Line_470">
        <path d="M 580 162.5 C 580 162.5 580 217.5 580 217.5" stroke="#841617" stroke-linecap="round" stroke-linejoin="round" stroke-width="2"/>
      </g>
      <g id="Line_469">
        <path d="M 625 162.5 C 625 162.5 625 217.5 625 217.5" stroke="#841617" stroke-linecap="round" stroke-linejoin="round" stroke-width="2"/>
      </g>
      <g id="Graphic_473">
        <rect x="530" y="155" width="100" height="15" fill="#841617"/>
      </g>
      <g id="Graphic_472">
        <rect x="530" y="210" width="100" height="15" fill="#841617"/>
      </g>
      <g id="Graphic_468">
        <path d="M 534.5 160 L 535.5 160 C 536.6046 160 537.5 160.89543 537.5 162 L 537.5 165.5 C 537.5 166.60457 536.6046 167.5 535.5 167.5 L 534.5 167.5 C 533.3954 167.5 532.5 166.60457 532.5 165.5 L 532.5 162 C 532.5 160.89543 533.3954 160 534.5 160 Z" fill="white"/>
      </g>
      <g id="Graphic_467">
        <path d="M 579.5 160 L 580.5 160 C 581.6046 160 582.5 160.89543 582.5 162 L 582.5 165.5 C 582.5 166.60457 581.6046 167.5 580.5 167.5 L 579.5 167.5 C 578.3954 167.5 577.5 166.60457 577.5 165.5 L 577.5 162 C 577.5 160.89543 578.3954 160 579.5 160 Z" fill="white"/>
      </g>
      <g id="Graphic_466">
        <path d="M 624.5 160 L 625.5 160 C 626.6046 160 627.5 160.89543 627.5 162 L 627.5 165.5 C 627.5 166.60457 626.6046 167.5 625.5 167.5 L 624.5 167.5 C 623.3954 167.5 622.5 166.60457 622.5 165.5 L 622.5 162 C 622.5 160.89543 623.3954 160 624.5 160 Z" fill="white"/>
      </g>
      <g id="Graphic_465">
        <path d="M 549.5 160 L 550.5 160 C 551.6046 160 552.5 160.89543 552.5 162 L 552.5 165.5 C 552.5 166.60457 551.6046 167.5 550.5 167.5 L 549.5 167.5 C 548.3954 167.5 547.5 166.60457 547.5 165.5 L 547.5 162 C 547.5 160.89543 548.3954 160 549.5 160 Z" fill="white"/>
      </g>
      <g id="Graphic_464">
        <path d="M 564.5 160 L 565.5 160 C 566.6046 160 567.5 160.89543 567.5 162 L 567.5 165.5 C 567.5 166.60457 566.6046 167.5 565.5 167.5 L 564.5 167.5 C 563.3954 167.5 562.5 166.60457 562.5 165.5 L 562.5 162 C 562.5 160.89543 563.3954 160 564.5 160 Z" fill="white"/>
      </g>
      <g id="Graphic_463">
        <path d="M 594.5 160 L 595.5 160 C 596.6046 160 597.5 160.89543 597.5 162 L 597.5 165.5 C 597.5 166.60457 596.6046 167.5 595.5 167.5 L 594.5 167.5 C 593.3954 167.5 592.5 166.60457 592.5 165.5 L 592.5 162 C 592.5 160.89543 593.3954 160 594.5 160 Z" fill="white"/>
      </g>
      <g id="Graphic_462">
        <path d="M 609.5 160 L 610.5 160 C 611.6046 160 612.5 160.89543 612.5 162 L 612.5 165.5 C 612.5 166.60457 611.6046 167.5 610.5 167.5 L 609.5 167.5 C 608.3954 167.5 607.5 166.60457 607.5 165.5 L 607.5 162 C 607.5 160.89543 608.3954 160 609.5 160 Z" fill="white"/>
      </g>
      <g id="Graphic_461">
        <path d="M 534.5 212.5 L 535.5 212.5 C 536.6046 212.5 537.5 213.39543 537.5 214.5 L 537.5 218 C 537.5 219.10457 536.6046 220 535.5 220 L 534.5 220 C 533.3954 220 532.5 219.10457 532.5 218 L 532.5 214.5 C 532.5 213.39543 533.3954 212.5 534.5 212.5 Z" fill="white"/>
      </g>
      <g id="Graphic_460">
        <path d="M 579.5 212.5 L 580.5 212.5 C 581.6046 212.5 582.5 213.39543 582.5 214.5 L 582.5 218 C 582.5 219.10457 581.6046 220 580.5 220 L 579.5 220 C 578.3954 220 577.5 219.10457 577.5 218 L 577.5 214.5 C 577.5 213.39543 578.3954 212.5 579.5 212.5 Z" fill="white"/>
      </g>
      <g id="Graphic_459">
        <path d="M 624.5 212.5 L 625.5 212.5 C 626.6046 212.5 627.5 213.39543 627.5 214.5 L 627.5 218 C 627.5 219.10457 626.6046 220 625.5 220 L 624.5 220 C 623.3954 220 622.5 219.10457 622.5 218 L 622.5 214.5 C 622.5 213.39543 623.3954 212.5 624.5 212.5 Z" fill="white"/>
      </g>
      <g id="Graphic_458">
        <path d="M 549.5 212.5 L 550.5 212.5 C 551.6046 212.5 552.5 213.39543 552.5 214.5 L 552.5 218 C 552.5 219.10457 551.6046 220 550.5 220 L 549.5 220 C 548.3954 220 547.5 219.10457 547.5 218 L 547.5 214.5 C 547.5 213.39543 548.3954 212.5 549.5 212.5 Z" fill="white"/>
      </g>
      <g id="Graphic_457">
        <path d="M 564.5 212.5 L 565.5 212.5 C 566.6046 212.5 567.5 213.39543 567.5 214.5 L 567.5 218 C 567.5 219.10457 566.6046 220 565.5 220 L 564.5 220 C 563.3954 220 562.5 219.10457 562.5 218 L 562.5 214.5 C 562.5 213.39543 563.3954 212.5 564.5 212.5 Z" fill="white"/>
      </g>
      <g id="Graphic_456">
        <path d="M 594.5 212.5 L 595.5 212.5 C 596.6046 212.5 597.5 213.39543 597.5 214.5 L 597.5 218 C 597.5 219.10457 596.6046 220 595.5 220 L 594.5 220 C 593.3954 220 592.5 219.10457 592.5 218 L 592.5 214.5 C 592.5 213.39543 593.3954 212.5 594.5 212.5 Z" fill="white"/>
      </g>
      <g id="Graphic_455">
        <path d="M 609.5 212.5 L 610.5 212.5 C 611.6046 212.5 612.5 213.39543 612.5 214.5 L 612.5 218 C 612.5 219.10457 611.6046 220 610.5 220 L 609.5 220 C 608.3954 220 607.5 219.10457 607.5 218 L 607.5 214.5 C 607.5 213.39543 608.3954 212.5 609.5 212.5 Z" fill="white"/>
      </g>
    </g>
  </g>
</svg>
